<mxfile host="app.diagrams.net" modified="2021-11-30T19:13:06.463Z" agent="5.0 (Windows NT 10.0; Win64; x64) AppleWebKit/537.36 (KHTML, like Gecko) Chrome/93.0.4577.63 Safari/537.36" etag="qziyr8JePR3LjFIAaTlx" version="15.8.8" type="github">
  <diagram name="Page-1" id="5d7acffa-a066-3a61-03fe-96351882024d">
    <mxGraphModel dx="1401" dy="772" grid="1" gridSize="10" guides="1" tooltips="1" connect="1" arrows="1" fold="1" page="1" pageScale="1" pageWidth="1100" pageHeight="850" background="#ffffff" math="0" shadow="0">
      <root>
        <mxCell id="0" />
        <mxCell id="1" parent="0" />
        <mxCell id="HXmn7OTbbug8Ag9zwqpq-1" value="" style="whiteSpace=wrap;html=1;" vertex="1" parent="1">
          <mxGeometry x="40" y="40" width="1040" height="640" as="geometry" />
        </mxCell>
        <mxCell id="HXmn7OTbbug8Ag9zwqpq-2" value="1. Recebimentos" style="text;html=1;resizable=0;autosize=1;align=center;verticalAlign=middle;points=[];rounded=0;strokeWidth=0;fontSize=20;fontStyle=1;fontFamily=Lucida Console;" vertex="1" parent="1">
          <mxGeometry x="50" y="44" width="200" height="30" as="geometry" />
        </mxCell>
        <mxCell id="HXmn7OTbbug8Ag9zwqpq-7" value="&lt;font style=&quot;font-size: 15px&quot;&gt;&lt;font style=&quot;font-size: 15px&quot;&gt;Box Jenkins&lt;br&gt;(AR&lt;/font&gt;IMA)&lt;/font&gt;" style="shape=card;whiteSpace=wrap;html=1;fontFamily=Lucida Console;fontSize=20;strokeWidth=0;fillColor=#99CCFF;size=20;" vertex="1" parent="1">
          <mxGeometry x="570" y="80" width="130" height="60" as="geometry" />
        </mxCell>
        <mxCell id="HXmn7OTbbug8Ag9zwqpq-8" value="&lt;font style=&quot;font-size: 15px&quot;&gt;Holt Winters&lt;/font&gt;" style="shape=card;whiteSpace=wrap;html=1;fontFamily=Lucida Console;fontSize=20;strokeWidth=0;fillColor=#99CCFF;size=20;" vertex="1" parent="1">
          <mxGeometry x="570" y="149" width="130" height="60" as="geometry" />
        </mxCell>
        <mxCell id="HXmn7OTbbug8Ag9zwqpq-9" value="&lt;font style=&quot;font-size: 15px&quot;&gt;ML Ensemble&lt;br&gt;Models&lt;/font&gt;" style="shape=card;whiteSpace=wrap;html=1;fontFamily=Lucida Console;fontSize=20;strokeWidth=0;fillColor=#99CCFF;size=20;" vertex="1" parent="1">
          <mxGeometry x="570" y="220" width="130" height="60" as="geometry" />
        </mxCell>
        <mxCell id="HXmn7OTbbug8Ag9zwqpq-13" style="edgeStyle=orthogonalEdgeStyle;rounded=0;orthogonalLoop=1;jettySize=auto;html=1;entryX=0;entryY=0;entryDx=0;entryDy=40;entryPerimeter=0;fontFamily=Lucida Console;fontSize=15;" edge="1" parent="1" source="HXmn7OTbbug8Ag9zwqpq-11" target="HXmn7OTbbug8Ag9zwqpq-7">
          <mxGeometry relative="1" as="geometry" />
        </mxCell>
        <mxCell id="HXmn7OTbbug8Ag9zwqpq-14" style="edgeStyle=orthogonalEdgeStyle;rounded=0;orthogonalLoop=1;jettySize=auto;html=1;entryX=0;entryY=0;entryDx=0;entryDy=40;entryPerimeter=0;fontFamily=Lucida Console;fontSize=15;" edge="1" parent="1" source="HXmn7OTbbug8Ag9zwqpq-11" target="HXmn7OTbbug8Ag9zwqpq-8">
          <mxGeometry relative="1" as="geometry">
            <Array as="points">
              <mxPoint x="490" y="188" />
              <mxPoint x="490" y="190" />
            </Array>
          </mxGeometry>
        </mxCell>
        <mxCell id="HXmn7OTbbug8Ag9zwqpq-15" style="edgeStyle=orthogonalEdgeStyle;rounded=0;orthogonalLoop=1;jettySize=auto;html=1;entryX=0;entryY=0;entryDx=0;entryDy=40;entryPerimeter=0;fontFamily=Lucida Console;fontSize=15;" edge="1" parent="1" source="HXmn7OTbbug8Ag9zwqpq-11" target="HXmn7OTbbug8Ag9zwqpq-9">
          <mxGeometry relative="1" as="geometry" />
        </mxCell>
        <mxCell id="HXmn7OTbbug8Ag9zwqpq-11" value="Variáveis Alvo" style="swimlane;fontFamily=Lucida Console;fontSize=15;strokeWidth=0;fillColor=#fad9d5;strokeColor=#ae4132;" vertex="1" parent="1">
          <mxGeometry x="100" y="97" width="310" height="185" as="geometry" />
        </mxCell>
        <mxCell id="21ea969265ad0168-10" value="&lt;b&gt;POR CANAL&lt;/b&gt;" style="swimlane;html=1;fontStyle=0;childLayout=stackLayout;horizontal=1;startSize=50;fillColor=#dae8fc;horizontalStack=0;resizeParent=1;resizeLast=0;collapsible=1;marginBottom=0;swimlaneFillColor=#ffffff;align=center;rounded=1;shadow=0;comic=0;labelBackgroundColor=none;strokeWidth=1;fontFamily=Verdana;fontSize=12;strokeColor=#6c8ebf;arcSize=4;" parent="1" vertex="1">
          <mxGeometry x="120" y="132" width="130" height="130" as="geometry" />
        </mxCell>
        <mxCell id="21ea969265ad0168-11" value="AS" style="text;html=1;strokeColor=none;fillColor=none;spacingLeft=4;spacingRight=4;whiteSpace=wrap;overflow=hidden;rotatable=0;points=[[0,0.5],[1,0.5]];portConstraint=eastwest;align=center;" parent="21ea969265ad0168-10" vertex="1">
          <mxGeometry y="50" width="130" height="26" as="geometry" />
        </mxCell>
        <mxCell id="21ea969265ad0168-12" value="CDD" style="text;html=1;strokeColor=none;fillColor=none;spacingLeft=4;spacingRight=4;whiteSpace=wrap;overflow=hidden;rotatable=0;points=[[0,0.5],[1,0.5]];portConstraint=eastwest;align=center;" parent="21ea969265ad0168-10" vertex="1">
          <mxGeometry y="76" width="130" height="26" as="geometry" />
        </mxCell>
        <mxCell id="21ea969265ad0168-52" value="REG/VER" style="text;html=1;strokeColor=none;fillColor=none;spacingLeft=4;spacingRight=4;whiteSpace=wrap;overflow=hidden;rotatable=0;points=[[0,0.5],[1,0.5]];portConstraint=eastwest;align=center;" parent="21ea969265ad0168-10" vertex="1">
          <mxGeometry y="102" width="130" height="26" as="geometry" />
        </mxCell>
        <mxCell id="HXmn7OTbbug8Ag9zwqpq-3" value="&lt;b&gt;AGREGADO&lt;/b&gt;" style="swimlane;html=1;fontStyle=0;childLayout=stackLayout;horizontal=1;startSize=50;fillColor=#dae8fc;horizontalStack=0;resizeParent=1;resizeLast=0;collapsible=1;marginBottom=0;swimlaneFillColor=#ffffff;align=center;rounded=1;shadow=0;comic=0;labelBackgroundColor=none;strokeWidth=1;fontFamily=Verdana;fontSize=12;strokeColor=#6c8ebf;arcSize=4;" vertex="1" parent="1">
          <mxGeometry x="260" y="132" width="130" height="130" as="geometry" />
        </mxCell>
        <mxCell id="HXmn7OTbbug8Ag9zwqpq-6" value="TOTAL" style="text;html=1;strokeColor=none;fillColor=none;spacingLeft=4;spacingRight=4;whiteSpace=wrap;overflow=hidden;rotatable=0;points=[[0,0.5],[1,0.5]];portConstraint=eastwest;align=center;" vertex="1" parent="HXmn7OTbbug8Ag9zwqpq-3">
          <mxGeometry y="50" width="130" height="26" as="geometry" />
        </mxCell>
        <mxCell id="HXmn7OTbbug8Ag9zwqpq-16" value="&lt;font style=&quot;font-size: 15px&quot;&gt;&lt;font style=&quot;font-size: 15px&quot;&gt;Box Jenkins&lt;br&gt;(AR&lt;/font&gt;IMA)&lt;/font&gt;" style="shape=card;whiteSpace=wrap;html=1;fontFamily=Lucida Console;fontSize=20;strokeWidth=0;fillColor=#99CCFF;size=20;" vertex="1" parent="1">
          <mxGeometry x="910" y="310" width="130" height="60" as="geometry" />
        </mxCell>
        <mxCell id="HXmn7OTbbug8Ag9zwqpq-17" value="&lt;font style=&quot;font-size: 15px&quot;&gt;Holt Winters&lt;/font&gt;" style="shape=card;whiteSpace=wrap;html=1;fontFamily=Lucida Console;fontSize=20;strokeWidth=0;fillColor=#99CCFF;size=20;" vertex="1" parent="1">
          <mxGeometry x="910" y="379" width="130" height="60" as="geometry" />
        </mxCell>
        <mxCell id="HXmn7OTbbug8Ag9zwqpq-18" value="&lt;font style=&quot;font-size: 15px&quot;&gt;ML Ensemble&lt;br&gt;Models&lt;/font&gt;" style="shape=card;whiteSpace=wrap;html=1;fontFamily=Lucida Console;fontSize=20;strokeWidth=0;fillColor=#99CCFF;size=20;" vertex="1" parent="1">
          <mxGeometry x="910" y="450" width="130" height="60" as="geometry" />
        </mxCell>
        <mxCell id="HXmn7OTbbug8Ag9zwqpq-22" value="Variáveis Alvo" style="swimlane;fontFamily=Lucida Console;fontSize=15;strokeWidth=0;fillColor=#fad9d5;strokeColor=#ae4132;" vertex="1" parent="1">
          <mxGeometry x="100" y="317" width="310" height="193" as="geometry" />
        </mxCell>
        <mxCell id="HXmn7OTbbug8Ag9zwqpq-23" value="&lt;b&gt;POR COMPONENTE&lt;/b&gt;" style="swimlane;html=1;fontStyle=0;childLayout=stackLayout;horizontal=1;startSize=50;fillColor=#dae8fc;horizontalStack=0;resizeParent=1;resizeLast=0;collapsible=1;marginBottom=0;swimlaneFillColor=#ffffff;align=center;rounded=1;shadow=0;comic=0;labelBackgroundColor=none;strokeWidth=1;fontFamily=Verdana;fontSize=12;strokeColor=#6c8ebf;arcSize=4;" vertex="1" parent="1">
          <mxGeometry x="120" y="352" width="270" height="138" as="geometry" />
        </mxCell>
        <mxCell id="HXmn7OTbbug8Ag9zwqpq-24" value="VOLUME" style="text;html=1;strokeColor=none;fillColor=none;spacingLeft=4;spacingRight=4;whiteSpace=wrap;overflow=hidden;rotatable=0;points=[[0,0.5],[1,0.5]];portConstraint=eastwest;align=center;" vertex="1" parent="HXmn7OTbbug8Ag9zwqpq-23">
          <mxGeometry y="50" width="270" height="26" as="geometry" />
        </mxCell>
        <mxCell id="HXmn7OTbbug8Ag9zwqpq-25" value="PREÇO" style="text;html=1;strokeColor=none;fillColor=none;spacingLeft=4;spacingRight=4;whiteSpace=wrap;overflow=hidden;rotatable=0;points=[[0,0.5],[1,0.5]];portConstraint=eastwest;align=center;" vertex="1" parent="HXmn7OTbbug8Ag9zwqpq-23">
          <mxGeometry y="76" width="270" height="26" as="geometry" />
        </mxCell>
        <mxCell id="HXmn7OTbbug8Ag9zwqpq-26" value="PRAZO" style="text;html=1;strokeColor=none;fillColor=none;spacingLeft=4;spacingRight=4;whiteSpace=wrap;overflow=hidden;rotatable=0;points=[[0,0.5],[1,0.5]];portConstraint=eastwest;align=center;" vertex="1" parent="HXmn7OTbbug8Ag9zwqpq-23">
          <mxGeometry y="102" width="270" height="26" as="geometry" />
        </mxCell>
        <mxCell id="HXmn7OTbbug8Ag9zwqpq-32" value="GRANULARIDADE" style="swimlane;fontFamily=Lucida Console;fontSize=15;strokeWidth=0;fillColor=#fad9d5;strokeColor=#ae4132;" vertex="1" parent="1">
          <mxGeometry x="430" y="317" width="310" height="243" as="geometry" />
        </mxCell>
        <mxCell id="HXmn7OTbbug8Ag9zwqpq-38" value="" style="whiteSpace=wrap;html=1;fontFamily=Lucida Console;fontSize=15;strokeWidth=0;fillColor=#99CCFF;" vertex="1" parent="HXmn7OTbbug8Ag9zwqpq-32">
          <mxGeometry x="55" y="35" width="200" height="37" as="geometry" />
        </mxCell>
      </root>
    </mxGraphModel>
  </diagram>
</mxfile>
